<?xml version="1.0"?>
<svg width="256" height="256" xmlns="http://www.w3.org/2000/svg" xmlns:svg="http://www.w3.org/2000/svg">
  <path d="m129.05,128a35.06,35.06 0 0 1 5.75,8.51c5.2,10.73 5.2,23.32 5.2,35.49c0,25.94 1.84,32 20,32a12,12 0 0 1 0,24c-19.14,0 -32.2,-6.9 -38.8,-20.51c-5.2,-10.73 -5.2,-23.32 -5.2,-35.49c0,-25.94 -1.84,-32 -20,-32a12,12 0 0 1 0,-24c18.16,0 20,-6.06 20,-32c0,-12.17 0,-24.76 5.2,-35.49c6.6,-13.61 19.66,-20.51 38.8,-20.51a12,12 0 0 1 0,24c-18.16,0 -20,6.06 -20,32l-10.95,44z" fill="currentColor"/>
</svg>